# xmcd
#
# Track frame offsets:
#	150
#	15502
#	28101
#	41806
#	61157
#	75514
#	91048
#	111985
#	125634
#	146118
#
# Disc length: 2136 seconds
#
# Revision: 0
# Processed by: cddbd v1.5.1PL0 Copyright (c) Steve Scherf et al.
# Submitted via: dBpowerAMP V4.0
#
DISCID=7f08560a
DTITLE=Jean Stafford - Let the Dance Begin
DYEAR=2005
DGENRE=Country
TTITLE0=I`m Goin`Crazy
TTITLE1=Don`t Bet Your Boots
TTITLE2=It`s All Over
TTITLE3=God`s Creaions
TTITLE4=Steelin` the 2 Step
TTITLE5=She`s Not A Fallen Angel
TTITLE6=Let the Dance Begin
TTITLE7=All My Friends Are Gonna Be Strangers
TTITLE8=Whatever Happened
TTITLE9=It`s Like Living With A Stranger
EXTD=
EXTT0=
EXTT1=
EXTT2=
EXTT3=
EXTT4=
EXTT5=
EXTT6=
EXTT7=
EXTT8=
EXTT9=
PLAYORDER=
